<svg xmlns:svg="http://www.w3.org/2000/svg" xmlns="http://www.w3.org/2000/svg" version="1.1">
<rect x="304.656427" y="167.835436" width="69.500000" height="70.200000" fill-opacity="0.5" stroke="#784421" fill="#00aa88" />
<rect x="92.070419" y="425.837232" width="69.500000" height="70.200000" fill-opacity="0.5" stroke="#6600ff" fill="#c8ab37" />
<rect x="198.288318" y="354.695780" width="69.500000" height="67.900000" fill-opacity="0.5" stroke="#784421" fill="#00aa88" />
<rect x="393.850557" y="49.785262" width="69.500000" height="65.600000" fill-opacity="0.5" stroke="#6600ff" fill="#c8ab37" />
<rect x="412.572032" y="367.198451" width="69.500000" height="63.300000" fill-opacity="0.5" stroke="#784421" fill="#00aa88" />
<rect x="498.141348" y="171.984084" width="69.500000" height="61.000000" fill-opacity="0.5" stroke="#6600ff" fill="#c8ab37" />
<rect x="433.835479" y="156.802256" width="69.500000" height="58.700000" fill-opacity="0.5" stroke="#784421" fill="#00aa88" />
<rect x="294.480004" y="75.814784" width="69.500000" height="56.400000" fill-opacity="0.5" stroke="#6600ff" fill="#c8ab37" />
<rect x="410.368758" y="481.561045" width="69.500000" height="54.100000" fill-opacity="0.5" stroke="#784421" fill="#00aa88" />
<rect x="455.123940" y="460.385887" width="66.000000" height="51.800000" fill-opacity="0.5" stroke="#6600ff" fill="#c8ab37" />
<rect x="131.907590" y="217.633351" width="62.500000" height="49.500000" fill-opacity="0.5" stroke="#784421" fill="#00aa88" />
<rect x="415.273789" y="446.868232" width="59.000000" height="47.200000" fill-opacity="0.5" stroke="#6600ff" fill="#c8ab37" />
<rect x="390.496177" y="330.293303" width="55.500000" height="44.900000" fill-opacity="0.5" stroke="#784421" fill="#00aa88" />
<rect x="266.954233" y="506.927236" width="52.000000" height="42.600000" fill-opacity="0.5" stroke="#6600ff" fill="#c8ab37" />
<rect x="30.091255" y="416.485625" width="48.500000" height="40.300000" fill-opacity="0.5" stroke="#784421" fill="#00aa88" />
<rect x="325.387652" y="145.745251" width="45.000000" height="38.000000" fill-opacity="0.5" stroke="#6600ff" fill="#c8ab37" />
<rect x="71.205057" y="263.726353" width="41.500000" height="35.700000" fill-opacity="0.5" stroke="#784421" fill="#00aa88" />
<rect x="394.455368" y="97.672955" width="38.000000" height="33.400000" fill-opacity="0.5" stroke="#6600ff" fill="#c8ab37" />
<rect x="331.330774" y="184.813362" width="34.500000" height="31.100000" fill-opacity="0.5" stroke="#784421" fill="#00aa88" />
<rect x="119.684776" y="216.874620" width="31.000000" height="28.800000" fill-opacity="0.5" stroke="#6600ff" fill="#c8ab37" />
<rect x="445.427706" y="161.239745" width="27.500000" height="26.500000" fill-opacity="0.5" stroke="#784421" fill="#00aa88" />
<rect x="280.226806" y="502.669255" width="24.000000" height="24.200000" fill-opacity="0.5" stroke="#6600ff" fill="#c8ab37" />
<rect x="208.111123" y="364.721054" width="20.500000" height="21.900000" fill-opacity="0.5" stroke="#784421" fill="#00aa88" />
<rect x="244.502267" y="352.510430" width="17.000000" height="19.600000" fill-opacity="0.5" stroke="#6600ff" fill="#c8ab37" />
<rect x="30.313610" y="485.355072" width="13.500000" height="17.300000" fill-opacity="0.5" stroke="#784421" fill="#00aa88" />
</svg>
