<svg xmlns:svg="http://www.w3.org/2000/svg" xmlns="http://www.w3.org/2000/svg" version="1.1">
<rect x="20.515394" y="416.914652" width="14.000000" height="15.000000" fill-opacity="0.5" stroke="#c87137" fill="#ffcc00" />
<rect x="464.146338" y="17.519093" width="14.000000" height="16.600000" fill-opacity="0.5" stroke="#800000" fill="#c8ab37" />
<rect x="70.439608" y="475.209447" width="14.000000" height="18.200000" fill-opacity="0.5" stroke="#c87137" fill="#ffcc00" />
<rect x="505.103636" y="393.938942" width="14.000000" height="19.800000" fill-opacity="0.5" stroke="#800000" fill="#c8ab37" />
<rect x="170.456531" y="72.969750" width="14.000000" height="21.400000" fill-opacity="0.5" stroke="#c87137" fill="#ffcc00" />
<rect x="277.086796" y="101.767481" width="14.000000" height="23.000000" fill-opacity="0.5" stroke="#800000" fill="#c8ab37" />
<rect x="486.674526" y="190.888828" width="16.800000" height="24.600000" fill-opacity="0.5" stroke="#c87137" fill="#ffcc00" />
<rect x="312.812094" y="440.038112" width="19.600000" height="26.200000" fill-opacity="0.5" stroke="#800000" fill="#c8ab37" />
<rect x="85.720299" y="320.707154" width="22.400000" height="27.800000" fill-opacity="0.5" stroke="#c87137" fill="#ffcc00" />
<rect x="221.298246" y="153.941868" width="25.200000" height="29.400000" fill-opacity="0.5" stroke="#800000" fill="#c8ab37" />
<rect x="240.162312" y="225.732069" width="28.000000" height="31.000000" fill-opacity="0.5" stroke="#c87137" fill="#ffcc00" />
<rect x="97.420179" y="138.379632" width="30.800000" height="32.600000" fill-opacity="0.5" stroke="#800000" fill="#c8ab37" />
<rect x="339.859719" y="418.107719" width="33.600000" height="34.200000" fill-opacity="0.5" stroke="#c87137" fill="#ffcc00" />
<rect x="35.154045" y="30.864844" width="36.400000" height="35.800000" fill-opacity="0.5" stroke="#800000" fill="#c8ab37" />
<rect x="408.297649" y="424.592546" width="39.200000" height="37.400000" fill-opacity="0.5" stroke="#c87137" fill="#ffcc00" />
<rect x="70.239999" y="28.830905" width="42.000000" height="39.000000" fill-opacity="0.5" stroke="#800000" fill="#c8ab37" />
<rect x="436.335445" y="447.808924" width="44.800000" height="40.600000" fill-opacity="0.5" stroke="#c87137" fill="#ffcc00" />
<rect x="190.300963" y="83.452747" width="47.600000" height="42.200000" fill-opacity="0.5" stroke="#800000" fill="#c8ab37" />
<rect x="50.070277" y="97.626457" width="50.400000" height="43.800000" fill-opacity="0.5" stroke="#c87137" fill="#ffcc00" />
<rect x="470.255432" y="270.029279" width="53.200000" height="45.400000" fill-opacity="0.5" stroke="#800000" fill="#c8ab37" />
<rect x="272.077625" y="184.081621" width="56.000000" height="47.000000" fill-opacity="0.5" stroke="#c87137" fill="#ffcc00" />
<rect x="173.257354" y="269.375225" width="58.800000" height="48.600000" fill-opacity="0.5" stroke="#800000" fill="#c8ab37" />
<rect x="171.848680" y="121.415381" width="61.600000" height="50.200000" fill-opacity="0.5" stroke="#c87137" fill="#ffcc00" />
<rect x="471.609452" y="214.601332" width="64.400000" height="51.800000" fill-opacity="0.5" stroke="#800000" fill="#c8ab37" />
<rect x="289.461954" y="146.016534" width="67.200000" height="53.400000" fill-opacity="0.5" stroke="#c87137" fill="#ffcc00" />
</svg>
