<svg xmlns:svg="http://www.w3.org/2000/svg" xmlns="http://www.w3.org/2000/svg" version="1.1">
<rect x="490.206579" y="446.309409" width="77.500000" height="65.500000" fill-opacity="0.5" stroke="#784421" fill="#00aa88" />
<circle r="38.750000" cx="320.869904" cy="379.541534" fill-opacity="0.5" stroke="#784421" fill="#00aa88" />
<rect x="367.507432" y="426.375072" width="74.000000" height="62.800000" fill-opacity="0.5" stroke="#6600ff" fill="#c8ab37" />
<circle r="37.000000" cx="345.932648" cy="448.701019" fill-opacity="0.5" stroke="#6600ff" fill="#c8ab37" />
<rect x="103.563634" y="228.581084" width="70.500000" height="60.100000" fill-opacity="0.5" stroke="#784421" fill="#00aa88" />
<circle r="35.250000" cx="49.674816" cy="287.784119" fill-opacity="0.5" stroke="#784421" fill="#00aa88" />
<rect x="402.355584" y="155.712024" width="67.000000" height="57.400000" fill-opacity="0.5" stroke="#6600ff" fill="#c8ab37" />
<circle r="33.500000" cx="297.443878" cy="420.626282" fill-opacity="0.5" stroke="#6600ff" fill="#c8ab37" />
<rect x="354.122736" y="336.495623" width="63.500000" height="54.700000" fill-opacity="0.5" stroke="#784421" fill="#00aa88" />
<circle r="31.750000" cx="357.734863" cy="351.628876" fill-opacity="0.5" stroke="#784421" fill="#00aa88" />
<rect x="169.752658" y="346.476286" width="60.000000" height="52.000000" fill-opacity="0.5" stroke="#6600ff" fill="#c8ab37" />
<circle r="30.000000" cx="97.038597" cy="223.186432" fill-opacity="0.5" stroke="#6600ff" fill="#c8ab37" />
<rect x="442.096255" y="371.934484" width="56.500000" height="49.300000" fill-opacity="0.5" stroke="#784421" fill="#00aa88" />
<circle r="28.250000" cx="216.977188" cy="270.732697" fill-opacity="0.5" stroke="#784421" fill="#00aa88" />
<rect x="500.358208" y="212.370993" width="53.000000" height="46.600000" fill-opacity="0.5" stroke="#6600ff" fill="#c8ab37" />
<circle r="26.500000" cx="116.347282" cy="242.977020" fill-opacity="0.5" stroke="#6600ff" fill="#c8ab37" />
<rect x="268.643552" y="59.234333" width="49.500000" height="43.900000" fill-opacity="0.5" stroke="#784421" fill="#00aa88" />
<circle r="24.750000" cx="419.328857" cy="101.161949" fill-opacity="0.5" stroke="#784421" fill="#00aa88" />
<rect x="333.047093" y="452.957708" width="46.000000" height="41.200000" fill-opacity="0.5" stroke="#6600ff" fill="#c8ab37" />
<circle r="23.000000" cx="174.204590" cy="492.195160" fill-opacity="0.5" stroke="#6600ff" fill="#c8ab37" />
<rect x="153.150428" y="271.367310" width="42.500000" height="38.500000" fill-opacity="0.5" stroke="#784421" fill="#00aa88" />
<circle r="21.250000" cx="238.559601" cy="406.024902" fill-opacity="0.5" stroke="#784421" fill="#00aa88" />
<rect x="399.870458" y="250.470067" width="39.000000" height="35.800000" fill-opacity="0.5" stroke="#6600ff" fill="#c8ab37" />
<circle r="19.500000" cx="459.364136" cy="223.292053" fill-opacity="0.5" stroke="#6600ff" fill="#c8ab37" />
<rect x="414.833888" y="445.439944" width="35.500000" height="33.100000" fill-opacity="0.5" stroke="#784421" fill="#00aa88" />
<circle r="17.750000" cx="191.047226" cy="80.626434" fill-opacity="0.5" stroke="#784421" fill="#00aa88" />
<rect x="77.404854" y="337.862477" width="32.000000" height="30.400000" fill-opacity="0.5" stroke="#6600ff" fill="#c8ab37" />
<circle r="16.000000" cx="141.592346" cy="155.184509" fill-opacity="0.5" stroke="#6600ff" fill="#c8ab37" />
<rect x="20.727820" y="33.813703" width="28.500000" height="27.700000" fill-opacity="0.5" stroke="#784421" fill="#00aa88" />
<circle r="14.250000" cx="309.089661" cy="363.006622" fill-opacity="0.5" stroke="#784421" fill="#00aa88" />
</svg>
