<svg xmlns:svg="http://www.w3.org/2000/svg" xmlns="http://www.w3.org/2000/svg" version="1.1">
<rect x="148.500000" y="118.500000" width="28.500000" height="27.700000" fill-opacity="0.5" stroke="#784421" fill="#00aa88" />
<circle r="14.250000" cx="154.750000" cy="123.500000" fill-opacity="0.5" stroke="#00aa88" fill="#00aa88" />
<rect x="148.500000" y="118.500000" width="28.500000" height="27.700000" fill-opacity="0.5" stroke="#784421" fill="#00aa88" />
<rect x="136.000000" y="108.500000" width="32.000000" height="30.400000" fill-opacity="0.5" stroke="#6600ff" fill="#c8ab37" />
<circle r="16.000000" cx="142.250000" cy="113.500000" fill-opacity="0.5" stroke="#c8ab37" fill="#c8ab37" />
<rect x="136.000000" y="108.500000" width="32.000000" height="30.400000" fill-opacity="0.5" stroke="#6600ff" fill="#c8ab37" />
<rect x="123.500000" y="98.500000" width="35.500000" height="33.100000" fill-opacity="0.5" stroke="#784421" fill="#00aa88" />
<circle r="17.750000" cx="129.750000" cy="103.500000" fill-opacity="0.5" stroke="#00aa88" fill="#00aa88" />
<rect x="123.500000" y="98.500000" width="35.500000" height="33.100000" fill-opacity="0.5" stroke="#784421" fill="#00aa88" />
<rect x="111.000000" y="88.500000" width="39.000000" height="35.800000" fill-opacity="0.5" stroke="#6600ff" fill="#c8ab37" />
<circle r="19.500000" cx="117.250000" cy="93.500000" fill-opacity="0.5" stroke="#c8ab37" fill="#c8ab37" />
<rect x="111.000000" y="88.500000" width="39.000000" height="35.800000" fill-opacity="0.5" stroke="#6600ff" fill="#c8ab37" />
<rect x="98.500000" y="78.500000" width="42.500000" height="38.500000" fill-opacity="0.5" stroke="#784421" fill="#00aa88" />
<circle r="21.250000" cx="104.750000" cy="83.500000" fill-opacity="0.5" stroke="#00aa88" fill="#00aa88" />
<rect x="98.500000" y="78.500000" width="42.500000" height="38.500000" fill-opacity="0.5" stroke="#784421" fill="#00aa88" />
<rect x="86.000000" y="68.500000" width="46.000000" height="41.200000" fill-opacity="0.5" stroke="#6600ff" fill="#c8ab37" />
<circle r="23.000000" cx="92.250000" cy="73.500000" fill-opacity="0.5" stroke="#c8ab37" fill="#c8ab37" />
<rect x="86.000000" y="68.500000" width="46.000000" height="41.200000" fill-opacity="0.5" stroke="#6600ff" fill="#c8ab37" />
<rect x="73.500000" y="58.500000" width="49.500000" height="43.900000" fill-opacity="0.5" stroke="#784421" fill="#00aa88" />
<circle r="24.750000" cx="79.750000" cy="63.500000" fill-opacity="0.5" stroke="#00aa88" fill="#00aa88" />
<rect x="73.500000" y="58.500000" width="49.500000" height="43.900000" fill-opacity="0.5" stroke="#784421" fill="#00aa88" />
<rect x="61.000000" y="48.500000" width="53.000000" height="46.600000" fill-opacity="0.5" stroke="#6600ff" fill="#c8ab37" />
<circle r="26.500000" cx="67.250000" cy="53.500000" fill-opacity="0.5" stroke="#c8ab37" fill="#c8ab37" />
<rect x="61.000000" y="48.500000" width="53.000000" height="46.600000" fill-opacity="0.5" stroke="#6600ff" fill="#c8ab37" />
<rect x="48.500000" y="38.500000" width="56.500000" height="49.300000" fill-opacity="0.5" stroke="#784421" fill="#00aa88" />
<circle r="28.250000" cx="54.750000" cy="43.500000" fill-opacity="0.5" stroke="#00aa88" fill="#00aa88" />
<rect x="48.500000" y="38.500000" width="56.500000" height="49.300000" fill-opacity="0.5" stroke="#784421" fill="#00aa88" />
<rect x="36.000000" y="28.500000" width="60.000000" height="52.000000" fill-opacity="0.5" stroke="#6600ff" fill="#c8ab37" />
<circle r="30.000000" cx="42.250000" cy="33.500000" fill-opacity="0.5" stroke="#c8ab37" fill="#c8ab37" />
<rect x="36.000000" y="28.500000" width="60.000000" height="52.000000" fill-opacity="0.5" stroke="#6600ff" fill="#c8ab37" />
<rect x="23.500000" y="18.500000" width="63.500000" height="54.700000" fill-opacity="0.5" stroke="#784421" fill="#00aa88" />
<circle r="31.750000" cx="29.750000" cy="23.500000" fill-opacity="0.5" stroke="#00aa88" fill="#00aa88" />
<rect x="23.500000" y="18.500000" width="63.500000" height="54.700000" fill-opacity="0.5" stroke="#784421" fill="#00aa88" />
<rect x="11.000000" y="8.500000" width="67.000000" height="57.400000" fill-opacity="0.5" stroke="#6600ff" fill="#c8ab37" />
<circle r="33.500000" cx="17.250000" cy="13.500000" fill-opacity="0.5" stroke="#c8ab37" fill="#c8ab37" />
<rect x="11.000000" y="8.500000" width="67.000000" height="57.400000" fill-opacity="0.5" stroke="#6600ff" fill="#c8ab37" />
<rect x="490.206579" y="446.309409" width="77.500000" height="65.500000" fill-opacity="0.5" stroke="#784421" fill="#00aa88" />
<circle r="38.750000" cx="320.869904" cy="379.541534" fill-opacity="0.5" stroke="#784421" fill="#00aa88" />
<rect x="367.507432" y="426.375072" width="74.000000" height="62.800000" fill-opacity="0.5" stroke="#6600ff" fill="#c8ab37" />
<circle r="37.000000" cx="345.932648" cy="448.701019" fill-opacity="0.5" stroke="#6600ff" fill="#c8ab37" />
<rect x="103.563634" y="228.581084" width="70.500000" height="60.100000" fill-opacity="0.5" stroke="#784421" fill="#00aa88" />
<circle r="35.250000" cx="49.674816" cy="287.784119" fill-opacity="0.5" stroke="#784421" fill="#00aa88" />
</svg>
